<?xml version="1.0" standalone="no"?>
<!DOCTYPE svg PUBLIC "-//W3C//DTD SVG 20010904//EN"
 "http://www.w3.org/TR/2001/REC-SVG-20010904/DTD/svg10.dtd">
<svg version="1.0" xmlns="http://www.w3.org/2000/svg"
 width="16.000000pt" height="16.000000pt" viewBox="0 0 16.000000 16.000000"
 preserveAspectRatio="xMidYMid meet">
<metadata>
Created by potrace 1.11, written by Peter Selinger 2001-2013
</metadata>
<g transform="translate(0.000000,16.000000) scale(0.009195,-0.009195)"
fill="#000000" stroke="none">
<path d="M765 1734 c-66 -16 -74 -25 -105 -109 -27 -69 -36 -84 -63 -96 -30
-13 -36 -12 -102 20 -104 50 -120 47 -223 -51 -63 -60 -111 -121 -115 -149 -3
-14 10 -53 30 -93 32 -63 34 -73 24 -107 -12 -38 -12 -39 -122 -79 -77 -28
-84 -44 -84 -200 0 -164 3 -170 110 -211 61 -23 85 -37 94 -55 16 -36 14 -48
-19 -113 -41 -82 -43 -103 -14 -143 69 -93 180 -189 221 -190 15 0 58 14 95
32 61 29 70 31 103 20 20 -7 38 -17 40 -24 2 -6 15 -43 29 -82 35 -94 45 -99
200 -99 167 0 177 5 217 111 28 75 35 84 66 95 31 10 41 8 101 -21 77 -37 111
-40 148 -11 102 80 193 187 189 223 -2 13 -17 53 -35 88 -29 57 -31 67 -21
100 10 34 16 39 94 68 109 41 112 47 112 212 0 164 -3 170 -110 211 -61 23
-85 37 -94 55 -16 35 -15 41 20 114 48 101 44 115 -53 218 -60 63 -121 111
-149 115 -14 3 -53 -10 -93 -30 -63 -32 -73 -34 -106 -24 -35 10 -39 16 -70
97 -26 68 -37 87 -58 96 -29 11 -224 20 -257 12z m199 -223 c29 -84 30 -85
126 -121 19 -7 39 -17 45 -22 18 -16 66 -7 130 24 l65 32 47 -47 47 -47 -32
-65 c-18 -36 -32 -74 -32 -85 0 -26 53 -156 73 -178 9 -9 48 -28 86 -42 l71
-24 0 -63 c0 -69 0 -70 -86 -99 -58 -19 -90 -46 -99 -82 -4 -15 -15 -45 -26
-69 -26 -56 -24 -72 12 -146 31 -63 32 -65 14 -88 -10 -13 -32 -35 -48 -48
l-29 -24 -64 31 c-36 18 -73 32 -84 32 -29 0 -160 -55 -181 -76 -10 -11 -28
-48 -41 -84 l-23 -65 -63 -3 -62 -3 -20 46 c-11 26 -20 53 -20 60 0 29 -48 67
-118 96 -40 16 -82 29 -92 29 -11 0 -49 -14 -85 -32 l-65 -32 -47 47 -47 47
32 65 c18 36 32 74 32 85 0 18 -45 137 -65 172 -6 9 -44 30 -85 45 l-75 29 -3
65 -3 66 43 12 c103 31 124 47 148 114 12 34 26 66 31 72 17 17 9 58 -23 127
l-32 69 47 47 47 46 65 -32 c64 -31 112 -40 131 -24 5 5 25 15 44 22 85 32 99
42 111 78 7 21 20 56 30 80 l18 42 63 0 63 0 29 -79z"/>
<path d="M765 1217 c-200 -66 -297 -299 -200 -485 106 -207 382 -252 544 -90
168 169 126 446 -84 553 -47 23 -73 29 -139 32 -48 2 -97 -3 -121 -10z m202
-160 c63 -33 103 -111 96 -187 -12 -126 -142 -210 -258 -166 -80 31 -127 97
-128 181 -1 66 27 121 80 159 67 46 137 51 210 13z"/>
</g>
</svg>
