<?xml version="1.0" standalone="no"?>
<!DOCTYPE svg PUBLIC "-//W3C//DTD SVG 20010904//EN"
 "http://www.w3.org/TR/2001/REC-SVG-20010904/DTD/svg10.dtd">
<svg version="1.0" xmlns="http://www.w3.org/2000/svg"
 width="16.000000pt" height="16.000000pt" viewBox="0 0 16.000000 16.000000"
 preserveAspectRatio="xMidYMid meet">
<metadata>
Created by potrace 1.11, written by Peter Selinger 2001-2013
</metadata>
<g transform="translate(0.000000,16.000000) scale(0.001033,-0.001033)"
fill="#000000" stroke="none">
<path d="M6520 10474 c-8 -2 -69 -8 -135 -14 -258 -21 -311 -27 -332 -38 -12
-7 -46 -12 -75 -12 -29 0 -71 -7 -93 -15 -22 -8 -57 -14 -78 -15 -20 0 -45 -4
-55 -10 -9 -5 -43 -12 -74 -15 -32 -4 -60 -11 -63 -16 -4 -5 -25 -9 -49 -9
-23 0 -51 -7 -62 -15 -10 -8 -38 -15 -60 -15 -24 0 -47 -6 -54 -15 -7 -9 -30
-15 -54 -15 -22 0 -50 -7 -60 -15 -11 -8 -32 -15 -47 -15 -15 0 -40 -7 -55
-15 -16 -8 -41 -15 -56 -15 -16 0 -28 -4 -28 -10 0 -5 -15 -10 -33 -10 -18 0
-42 -7 -53 -15 -10 -8 -32 -15 -49 -15 -16 0 -39 -7 -49 -15 -11 -8 -32 -15
-47 -15 -15 0 -31 -4 -34 -10 -3 -5 -14 -10 -23 -10 -9 0 -30 -7 -46 -15 -15
-8 -39 -15 -51 -15 -13 0 -30 -7 -39 -15 -8 -8 -26 -15 -39 -15 -14 0 -30 -7
-37 -15 -7 -8 -24 -15 -39 -15 -14 0 -35 -7 -45 -15 -11 -8 -28 -15 -38 -15
-18 0 -25 -3 -86 -33 -19 -9 -42 -17 -52 -17 -9 0 -23 -7 -30 -15 -7 -8 -25
-15 -40 -15 -16 0 -30 -7 -34 -15 -3 -8 -17 -15 -31 -15 -15 0 -33 -7 -41 -15
-9 -8 -26 -15 -40 -15 -13 0 -24 -4 -24 -9 0 -5 -16 -12 -35 -15 -19 -4 -35
-11 -35 -16 0 -6 -11 -10 -24 -10 -13 0 -29 -7 -36 -15 -7 -8 -22 -15 -34 -15
-11 0 -30 -7 -40 -15 -11 -8 -28 -15 -38 -15 -10 0 -18 -4 -18 -10 0 -5 -11
-10 -24 -10 -13 0 -29 -7 -36 -15 -7 -8 -23 -15 -35 -15 -12 0 -28 -7 -35 -15
-7 -8 -23 -15 -35 -15 -13 0 -25 -7 -29 -15 -3 -8 -16 -15 -28 -15 -13 0 -32
-7 -42 -15 -11 -8 -28 -15 -38 -15 -10 0 -18 -4 -18 -10 0 -5 -11 -10 -24 -10
-14 0 -31 -7 -40 -15 -8 -8 -23 -15 -34 -15 -11 0 -25 -7 -32 -15 -7 -8 -21
-15 -30 -15 -10 0 -31 -6 -47 -14 -38 -19 -73 -33 -100 -41 -13 -4 -23 -11
-23 -16 0 -5 -13 -9 -29 -9 -16 0 -34 -7 -41 -15 -7 -8 -23 -15 -35 -15 -12 0
-28 -7 -35 -15 -7 -8 -23 -15 -36 -15 -12 0 -25 -4 -29 -9 -3 -6 -26 -13 -50
-17 -25 -3 -45 -10 -45 -15 0 -5 -17 -9 -38 -9 -21 0 -47 -7 -58 -15 -10 -8
-37 -15 -59 -15 -22 0 -49 -7 -59 -15 -12 -9 -41 -15 -71 -15 -28 0 -56 -5
-63 -12 -12 -12 -48 -16 -322 -38 -174 -13 -545 11 -572 38 -6 6 -30 12 -53
12 -23 0 -50 7 -61 15 -10 8 -31 15 -45 15 -15 0 -32 7 -39 15 -7 8 -25 15
-41 15 -15 0 -30 4 -33 9 -4 5 -24 12 -46 16 -22 4 -42 11 -46 16 -3 5 -19 9
-36 9 -16 0 -44 6 -61 14 -29 13 -167 30 -227 28 -73 -2 -151 -16 -161 -28 -6
-8 -17 -14 -23 -14 -11 0 -64 -47 -93 -84 -19 -22 -16 -96 5 -136 34 -69 47
-80 132 -121 25 -12 53 -25 62 -30 10 -5 26 -9 37 -9 10 0 24 -7 31 -15 7 -8
18 -15 24 -15 15 0 56 -54 56 -72 0 -8 -10 -20 -21 -28 -12 -8 -27 -21 -35
-27 -7 -7 -19 -13 -27 -13 -8 0 -20 -7 -27 -15 -7 -8 -21 -15 -32 -15 -10 0
-21 -7 -24 -15 -4 -8 -14 -15 -24 -15 -10 0 -23 -7 -30 -15 -7 -8 -19 -15 -27
-15 -8 0 -24 -11 -37 -25 -13 -14 -28 -25 -34 -25 -17 0 -182 -160 -182 -176
0 -8 -7 -17 -15 -20 -8 -4 -15 -10 -15 -16 0 -5 -11 -19 -24 -31 -13 -12 -26
-32 -30 -44 -4 -13 -11 -23 -16 -23 -4 0 -10 -8 -14 -17 -3 -10 -15 -31 -25
-48 -11 -16 -30 -50 -43 -75 -13 -25 -26 -46 -30 -48 -5 -2 -8 -12 -8 -22 0
-9 -7 -23 -15 -30 -8 -7 -15 -20 -15 -30 0 -10 -7 -23 -15 -30 -8 -7 -15 -23
-15 -35 0 -12 -7 -28 -15 -35 -8 -7 -15 -22 -15 -34 0 -11 -7 -30 -15 -40 -8
-11 -15 -30 -15 -43 0 -13 -4 -23 -10 -23 -5 0 -10 -13 -10 -28 0 -16 -7 -37
-15 -48 -8 -10 -15 -35 -15 -54 0 -19 -7 -44 -15 -54 -8 -11 -15 -38 -15 -61
0 -23 -4 -45 -9 -51 -12 -12 -20 -88 -27 -267 l-6 -149 21 11 c14 8 21 21 21
40 0 16 7 34 15 41 8 7 15 25 15 40 0 15 7 33 15 40 8 7 15 23 15 36 0 12 4
25 9 28 5 3 12 22 15 41 4 19 11 35 16 35 6 0 10 8 10 19 0 10 7 24 15 31 8 7
15 20 15 30 0 10 7 23 15 30 8 7 15 18 15 25 0 16 32 79 43 83 4 2 7 12 7 22
0 9 7 23 15 30 8 7 15 18 15 25 0 7 7 15 15 19 8 3 15 13 15 21 0 9 6 23 12
30 31 35 38 45 38 59 0 7 7 16 15 20 8 3 15 12 15 20 0 7 7 16 15 20 8 3 15
10 15 16 0 5 8 18 18 28 22 23 47 55 92 112 19 25 37 47 41 50 8 6 158 140
173 155 35 34 182 134 243 166 24 13 43 26 43 31 0 4 8 8 19 8 10 0 24 7 31
15 7 8 20 15 30 15 10 0 23 7 30 15 7 8 21 15 32 15 11 0 26 7 34 15 9 8 24
15 34 15 10 0 22 5 25 10 3 6 14 10 23 10 9 0 30 7 46 15 15 8 38 15 51 15 12
0 28 7 35 15 7 8 27 15 44 15 17 0 40 7 50 15 11 8 34 15 52 15 18 0 36 5 39
10 3 6 18 10 33 10 15 0 40 7 56 15 15 8 40 15 55 15 15 0 36 7 47 15 10 8 41
15 67 15 27 0 58 5 70 12 12 7 74 16 137 22 237 19 1223 3 1267 -22 12 -7 57
-12 102 -12 44 0 106 -7 138 -15 31 -8 90 -15 131 -15 40 0 82 -4 92 -10 10
-5 65 -12 122 -16 56 -3 114 -9 128 -14 14 -5 69 -11 123 -14 55 -4 107 -11
117 -16 10 -6 59 -10 108 -10 57 0 103 -5 125 -15 25 -10 72 -15 150 -15 63 0
127 -4 143 -10 32 -11 271 -26 605 -39 119 -5 232 -13 250 -19 19 -6 133 -13
254 -15 121 -3 238 -10 260 -16 22 -6 137 -11 255 -11 118 -1 235 -5 260 -11
66 -15 718 -31 1245 -32 460 0 824 12 965 32 41 6 168 11 282 11 151 0 223 4
265 15 36 9 103 15 181 15 71 0 132 5 144 11 12 6 75 15 142 20 287 20 378 29
396 39 10 5 53 10 95 10 45 0 90 6 112 15 21 9 67 15 115 15 44 0 88 5 99 10
18 10 88 17 374 40 66 5 138 14 160 19 22 6 227 12 455 15 228 3 458 10 510
16 71 9 119 9 190 0 52 -6 228 -15 390 -20 320 -10 515 -25 542 -40 10 -6 36
-10 58 -10 22 0 57 -7 77 -15 19 -8 54 -15 77 -15 22 0 50 -7 60 -15 11 -8 32
-15 47 -15 15 0 40 -7 55 -15 16 -8 41 -15 56 -15 15 0 30 -4 33 -10 3 -5 19
-10 35 -10 16 0 35 -7 44 -15 8 -8 26 -15 41 -15 14 0 28 -7 31 -15 4 -8 18
-15 34 -15 15 0 33 -7 40 -15 7 -8 20 -15 30 -15 17 0 87 -35 160 -79 19 -11
42 -24 50 -27 44 -17 68 -31 101 -56 20 -15 39 -28 42 -28 3 0 21 -13 39 -30
18 -16 37 -30 43 -30 6 0 27 -14 46 -31 19 -17 54 -47 79 -67 55 -46 200 -187
200 -196 0 -6 21 -31 98 -114 23 -26 42 -50 42 -55 0 -5 6 -15 13 -22 25 -29
33 -40 40 -57 3 -10 11 -18 17 -18 5 0 10 -5 10 -11 0 -6 14 -28 30 -49 17
-21 30 -43 30 -49 0 -6 4 -11 8 -11 5 0 19 -20 31 -45 12 -24 26 -47 32 -50 5
-4 9 -14 9 -25 0 -10 7 -20 15 -24 8 -3 15 -15 15 -26 0 -11 3 -20 8 -20 10 0
42 -58 42 -76 0 -8 7 -17 15 -20 8 -4 15 -15 15 -26 0 -11 7 -26 15 -34 8 -9
15 -24 15 -35 0 -10 4 -19 9 -19 5 0 12 -13 16 -29 3 -16 13 -35 21 -42 8 -6
14 -20 14 -30 0 -10 5 -21 10 -24 16 -10 12 129 -5 161 -8 16 -15 41 -15 57 0
15 -4 27 -10 27 -5 0 -10 13 -10 28 0 16 -7 37 -15 48 -8 10 -15 31 -15 46 0
15 -7 33 -15 42 -8 8 -15 26 -15 39 0 14 -7 30 -15 37 -8 7 -15 23 -15 35 0
12 -7 28 -15 35 -8 7 -15 21 -15 30 0 17 -28 79 -41 90 -3 3 -9 17 -13 33 -3
15 -11 27 -16 27 -6 0 -10 11 -10 24 0 13 -7 26 -15 30 -8 3 -15 15 -15 26 0
11 -4 20 -10 20 -5 0 -19 20 -30 45 -11 25 -24 45 -29 45 -5 0 -12 11 -15 25
-4 14 -11 25 -16 25 -6 0 -10 7 -10 15 0 8 -4 15 -9 15 -5 0 -20 17 -32 38
-25 39 -43 61 -99 122 -19 21 -53 59 -75 86 -43 51 -92 99 -140 135 -16 13
-47 40 -67 61 -21 21 -42 38 -48 38 -5 0 -10 4 -10 8 0 4 -27 27 -61 51 -34
24 -68 52 -77 62 -9 10 -21 19 -26 19 -5 0 -24 11 -42 25 -18 14 -37 25 -42
25 -5 0 -15 7 -22 15 -7 8 -21 15 -32 15 -10 0 -21 7 -24 15 -4 8 -16 15 -29
15 -13 0 -25 7 -29 15 -3 8 -17 15 -31 15 -14 0 -25 4 -25 9 0 5 -10 12 -22
16 -28 8 -63 22 -101 41 -16 8 -38 14 -49 14 -10 0 -26 7 -34 15 -9 8 -29 15
-45 15 -16 0 -29 5 -29 10 0 6 -10 10 -22 10 -13 0 -36 7 -52 15 -15 8 -40 15
-55 15 -15 0 -36 7 -47 15 -10 8 -35 15 -55 15 -20 0 -42 7 -49 15 -7 9 -30
15 -54 15 -22 1 -52 7 -66 15 -14 8 -48 14 -76 15 -27 0 -55 5 -60 10 -19 19
-183 31 -539 40 -192 5 -433 14 -536 19 -125 8 -203 8 -240 1 -29 -5 -142 -14
-249 -20 -315 -16 -469 -29 -489 -40 -11 -5 -59 -10 -108 -10 -50 -1 -105 -7
-128 -15 -22 -8 -74 -15 -116 -15 -42 0 -96 -7 -119 -15 -24 -8 -77 -15 -119
-15 -46 0 -82 -5 -89 -12 -6 -6 -50 -13 -99 -15 -49 -3 -97 -8 -108 -13 -20
-9 -139 -24 -300 -39 -50 -4 -100 -13 -112 -19 -12 -7 -58 -12 -103 -12 -45 0
-90 -5 -102 -11 -58 -31 -564 -46 -1528 -46 -1103 0 -2210 22 -2290 46 -19 6
-108 11 -197 11 -95 0 -173 5 -190 11 -15 6 -89 15 -163 20 -251 15 -405 29
-422 39 -10 6 -55 10 -100 10 -46 1 -101 7 -123 15 -22 8 -76 15 -120 15 -50
1 -89 6 -105 15 -14 8 -52 14 -86 15 -34 0 -78 7 -97 15 -20 8 -63 15 -95 15
-32 0 -63 5 -68 10 -6 6 -47 13 -92 17 -45 3 -82 10 -82 14 0 5 -10 9 -22 9
-21 0 -68 43 -68 62 0 32 99 138 129 138 6 0 11 3 11 8 0 4 20 18 45 32 25 14
45 28 45 32 0 5 9 8 20 8 11 0 23 7 26 15 4 8 14 15 24 15 11 0 21 4 25 9 3 6
27 20 53 33 26 13 49 26 50 31 2 4 12 7 22 7 9 0 23 7 30 15 7 8 20 15 30 15
10 0 23 7 30 15 7 8 20 15 30 15 10 0 23 7 30 15 7 8 23 15 36 15 12 0 26 5
29 10 3 6 15 10 25 10 10 0 25 7 34 15 8 8 26 15 39 15 14 0 30 7 37 15 7 8
21 15 30 15 10 0 33 8 52 17 61 30 68 33 86 33 10 0 27 7 38 15 10 8 31 15 45
15 15 0 32 7 39 15 7 8 25 15 40 15 15 0 33 7 40 15 7 8 27 15 44 15 17 0 40
7 50 15 11 8 32 15 47 15 15 0 30 4 33 9 3 5 26 12 51 15 24 4 47 11 50 17 4
5 23 9 44 9 20 0 46 7 57 15 10 8 38 15 61 15 23 0 44 4 47 9 3 5 32 12 63 16
32 4 63 10 68 15 6 4 39 10 74 13 35 3 68 10 74 16 6 6 39 11 74 11 35 0 80 7
100 15 21 9 67 15 114 15 43 0 102 6 131 14 50 13 427 22 766 17 l112 -1 0
-27 c0 -16 -7 -41 -15 -57 -8 -15 -15 -52 -15 -81 0 -28 -7 -74 -15 -101 -21
-68 -21 -330 0 -398 8 -27 15 -75 15 -107 0 -36 4 -59 13 -61 24 -10 37 4 37
41 0 20 7 46 15 57 8 10 15 42 15 69 0 28 7 61 15 75 8 14 14 44 15 66 0 23 7
55 15 70 8 16 15 46 15 66 0 20 5 40 10 43 6 3 10 21 10 38 0 18 7 45 15 61 8
15 15 41 15 56 0 15 7 33 15 40 8 7 15 24 15 39 0 14 7 35 15 45 8 11 15 28
15 37 0 10 6 22 14 26 20 11 227 -2 254 -16 11 -6 56 -11 100 -11 48 0 94 -6
115 -15 20 -8 65 -15 99 -15 35 0 81 -7 103 -15 22 -8 63 -14 91 -15 28 0 54
-3 58 -7 8 -8 117 -28 221 -41 33 -4 67 -12 75 -17 8 -5 38 -13 65 -17 75 -11
158 -29 177 -39 10 -5 35 -9 56 -9 21 0 47 -7 58 -15 10 -8 38 -15 60 -15 24
0 47 -6 54 -15 7 -9 30 -15 54 -15 22 0 50 -7 60 -15 11 -8 32 -15 47 -15 15
0 40 -7 55 -15 16 -8 41 -15 56 -15 15 0 30 -4 33 -10 3 -5 18 -10 33 -10 15
0 40 -7 56 -15 15 -8 40 -15 55 -15 15 0 36 -7 47 -15 10 -8 31 -15 45 -15 15
0 40 -7 55 -15 16 -8 39 -15 51 -15 12 0 25 -4 28 -10 3 -5 19 -10 34 -10 15
0 36 -7 47 -15 10 -8 33 -15 50 -15 17 0 37 -7 44 -15 7 -8 27 -15 45 -15 18
0 38 -7 45 -15 7 -8 23 -15 35 -15 13 0 36 -7 51 -15 16 -8 39 -15 51 -15 12
0 25 -4 28 -10 3 -5 16 -10 29 -10 12 0 31 -7 42 -15 10 -8 31 -15 45 -15 14
0 34 -7 45 -15 10 -8 30 -15 44 -15 14 0 34 -7 44 -15 11 -8 27 -15 37 -15 9
0 30 -7 45 -15 16 -8 37 -15 46 -15 9 0 20 -4 23 -10 3 -5 19 -10 35 -10 16 0
35 -7 44 -15 8 -8 26 -15 41 -15 15 0 33 -7 41 -15 9 -8 25 -15 38 -15 12 0
27 -5 33 -11 7 -7 19 -9 27 -6 20 8 21 37 1 37 -7 0 -18 6 -22 13 -4 7 -32 24
-60 37 -29 14 -53 28 -53 32 0 5 -8 8 -19 8 -10 0 -24 7 -31 15 -7 8 -20 15
-30 15 -10 0 -20 7 -24 15 -3 8 -14 15 -25 15 -11 0 -23 5 -26 10 -4 6 -29 20
-56 32 -27 12 -49 25 -49 30 0 4 -9 8 -19 8 -11 0 -23 5 -26 10 -4 6 -29 20
-56 32 -27 12 -49 25 -49 30 0 4 -8 8 -19 8 -10 0 -24 7 -31 15 -7 8 -21 15
-32 15 -10 0 -21 7 -24 15 -4 8 -16 15 -29 15 -13 0 -25 7 -29 15 -3 8 -14 15
-24 15 -11 0 -25 7 -32 15 -7 8 -21 15 -30 15 -10 0 -20 3 -22 8 -1 4 -21 15
-43 26 -22 10 -47 22 -55 27 -8 5 -22 12 -30 15 -8 3 -37 17 -63 30 -27 13
-55 24 -62 24 -7 0 -18 7 -25 15 -7 8 -23 15 -35 15 -13 0 -25 7 -29 15 -3 8
-16 15 -29 15 -14 0 -30 7 -37 15 -7 8 -23 15 -36 15 -13 0 -24 4 -24 9 0 5
-10 12 -22 16 -28 8 -63 22 -101 41 -16 8 -37 14 -47 14 -9 0 -23 7 -30 15 -7
8 -22 15 -34 15 -11 0 -30 7 -40 15 -11 8 -30 15 -43 15 -13 0 -23 4 -23 9 0
5 -18 12 -40 16 -22 4 -40 11 -40 16 0 5 -13 9 -29 9 -16 0 -36 7 -45 15 -8 8
-28 15 -44 15 -16 0 -35 7 -42 15 -7 9 -29 15 -51 15 -21 0 -40 4 -44 9 -3 6
-26 13 -50 17 -25 3 -48 10 -51 15 -3 5 -20 9 -38 9 -18 0 -41 7 -52 15 -10 8
-35 15 -55 15 -19 0 -44 7 -55 15 -10 8 -37 15 -59 15 -22 0 -49 7 -59 15 -11
8 -39 15 -62 15 -24 0 -45 4 -49 9 -3 6 -27 13 -53 16 -26 3 -55 10 -64 16
-10 5 -35 9 -55 9 -21 1 -56 7 -78 15 -22 8 -62 15 -88 15 -27 0 -58 5 -70 12
-12 6 -56 15 -97 20 -41 4 -109 13 -150 19 -71 10 -1077 22 -1110 13z"/>
<path d="M2258 8018 c-2 -6 -27 -13 -56 -16 -29 -2 -52 -8 -52 -13 0 -5 -17
-9 -38 -9 -21 0 -47 -7 -58 -15 -10 -8 -38 -15 -61 -15 -23 0 -45 -5 -48 -10
-3 -6 -25 -19 -48 -30 -51 -25 -72 -37 -118 -72 -20 -16 -40 -28 -43 -28 -3 0
-25 -13 -48 -30 -22 -16 -47 -30 -55 -30 -7 0 -13 -3 -13 -7 0 -5 -14 -23 -30
-42 -17 -18 -30 -36 -30 -40 0 -3 -18 -26 -40 -51 -22 -25 -40 -48 -40 -51 0
-4 -13 -22 -30 -40 -16 -19 -30 -39 -30 -46 0 -6 -5 -13 -11 -15 -5 -2 -12
-19 -15 -38 -3 -19 -10 -39 -15 -44 -5 -6 -9 -22 -9 -36 0 -14 -7 -35 -15 -46
-8 -10 -15 -31 -15 -45 0 -14 -7 -34 -15 -45 -22 -28 -22 -399 0 -420 8 -9 15
-30 15 -49 0 -18 7 -46 15 -61 8 -16 15 -46 15 -66 0 -21 5 -38 10 -38 6 0 10
-9 10 -19 0 -11 7 -26 15 -35 8 -8 15 -22 15 -31 0 -8 7 -18 15 -21 8 -4 15
-12 15 -19 0 -14 30 -76 41 -85 4 -3 16 -23 28 -46 28 -54 212 -240 264 -266
23 -12 44 -24 47 -28 3 -3 37 -20 75 -39 39 -18 78 -40 88 -49 9 -8 20 -13 23
-10 3 3 22 2 42 -3 20 -5 62 -11 92 -14 126 -12 153 -16 170 -27 13 -9 32 -7
77 5 33 10 85 17 116 17 30 0 68 5 83 10 15 6 45 13 68 16 22 3 45 9 50 14 6
6 20 10 32 10 12 0 27 7 34 15 7 8 25 15 41 15 16 0 29 5 29 10 0 6 6 10 13
10 8 0 33 14 55 30 23 17 46 30 52 30 5 0 10 5 10 10 0 6 7 13 16 17 23 9 174
157 174 171 0 7 5 12 10 12 6 0 10 5 10 10 0 12 41 73 53 78 4 2 7 14 7 27 0
12 7 25 15 29 8 3 15 14 15 24 0 11 7 25 15 32 8 7 15 25 15 41 0 16 5 29 10
29 6 0 10 9 10 20 0 12 7 34 15 50 8 15 17 45 19 66 3 21 10 40 16 42 5 2 10
25 10 52 0 27 3 55 6 64 10 26 24 18 24 -13 0 -16 4 -41 10 -56 16 -41 19
-112 6 -137 -7 -13 -12 -38 -12 -57 1 -31 4 -35 31 -37 17 -2 702 -5 1524 -8
821 -2 1496 -7 1499 -11 3 -3 197 -5 431 -5 234 0 1534 0 2889 0 2182 0 2462
-2 2462 -15 0 -8 4 -15 9 -15 5 0 12 -11 15 -25 4 -14 11 -25 16 -25 6 0 10
-7 10 -15 0 -9 7 -18 15 -21 8 -4 15 -14 15 -24 0 -10 7 -20 15 -24 8 -3 15
-14 15 -24 0 -19 202 -232 220 -232 5 0 10 -4 10 -10 0 -5 11 -12 25 -16 14
-3 25 -10 25 -14 0 -5 20 -19 45 -31 25 -12 45 -26 45 -31 0 -4 6 -8 14 -8 7
0 19 -7 26 -15 7 -8 24 -15 39 -15 14 0 35 -7 45 -15 11 -8 32 -15 46 -15 14
0 30 -4 36 -9 31 -29 371 -54 415 -31 12 7 41 14 65 16 53 4 68 7 74 16 3 4
21 10 40 13 19 3 37 10 38 16 2 5 19 9 38 9 22 0 37 6 40 15 4 8 16 15 29 15
13 0 25 7 29 15 3 8 12 15 21 15 8 0 15 4 15 10 0 5 11 12 25 16 14 3 25 10
25 14 0 4 11 11 25 14 14 4 25 11 25 16 0 6 6 10 13 10 6 0 21 14 32 30 11 16
23 30 27 30 6 0 46 38 123 121 8 9 15 21 15 28 0 6 11 24 25 39 14 15 25 31
25 36 0 5 7 17 16 27 9 10 14 25 10 34 -5 13 -52 15 -399 15 -335 -1 -398 1
-423 15 -16 8 -37 15 -46 15 -10 0 -18 5 -18 10 0 6 -11 10 -25 10 -13 0 -28
6 -32 13 -4 6 -24 21 -43 31 -45 25 -141 123 -159 161 -7 17 -19 44 -27 60
-29 62 -32 373 -3 383 5 2 9 14 9 26 0 43 104 164 165 193 17 7 37 17 45 22
45 24 62 31 79 31 11 0 26 6 33 14 8 7 41 16 74 19 32 4 70 9 84 12 31 7 202
6 255 -1 22 -3 126 -8 231 -11 165 -4 192 -3 197 10 3 9 -1 21 -9 27 -8 7 -14
19 -14 26 0 8 -4 14 -9 14 -5 0 -20 17 -32 38 -34 55 -39 60 -103 121 -139
133 -160 151 -176 151 -10 0 -20 7 -24 15 -3 8 -14 15 -25 15 -11 0 -23 4 -26
10 -3 5 -14 10 -25 10 -10 0 -20 7 -24 15 -3 8 -14 15 -24 15 -10 0 -23 5 -30
12 -13 13 -84 36 -139 45 -18 3 -33 9 -33 13 0 7 -62 18 -112 20 -10 1 -18 5
-18 9 0 15 -258 11 -288 -5 -15 -8 -43 -14 -63 -14 -19 0 -39 -4 -45 -10 -5
-5 -29 -11 -52 -12 -24 -1 -46 -6 -50 -12 -4 -6 -27 -21 -52 -34 -25 -13 -61
-32 -80 -44 -19 -11 -50 -29 -68 -38 -33 -18 -63 -47 -125 -124 -18 -22 -52
-60 -77 -84 -25 -25 -45 -48 -45 -52 0 -11 -40 -85 -47 -88 -5 -2 -8 -14 -8
-27 0 -12 -7 -28 -15 -35 -8 -7 -15 -21 -15 -31 0 -11 -4 -19 -9 -19 -5 0 -13
-10 -17 -22 -4 -13 -10 -25 -13 -28 -9 -6 -31 -92 -38 -145 -3 -22 -12 -49
-19 -60 -8 -11 -14 -38 -14 -60 0 -22 -7 -58 -15 -80 -14 -39 -14 -36 -15 86
0 89 4 134 14 155 8 16 16 52 18 79 l3 50 -4403 2 c-2513 2 -4410 7 -4419 12
-10 5 -16 21 -15 39 0 17 -6 36 -14 43 -8 6 -14 20 -14 30 0 10 -5 21 -11 24
-5 4 -14 17 -20 28 -19 44 -51 84 -136 170 -64 64 -95 92 -106 92 -5 0 -14 7
-21 15 -14 18 -44 38 -68 46 -10 4 -18 10 -18 15 0 5 -9 9 -20 9 -11 0 -23 7
-26 15 -4 8 -14 15 -24 15 -10 0 -25 7 -34 15 -8 8 -26 15 -39 15 -14 0 -27 4
-29 10 -1 5 -21 12 -43 16 -22 3 -41 10 -43 15 -2 5 -16 9 -32 9 -15 0 -43 6
-62 14 -42 18 -315 21 -320 4z m376 -603 c27 -5 36 -16 66 -78 19 -40 41 -78
48 -85 6 -7 12 -19 12 -26 0 -8 7 -19 15 -26 9 -7 13 -15 10 -18 -3 -3 0 -11
5 -17 6 -7 21 -32 34 -56 38 -72 51 -94 59 -100 4 -3 11 -19 16 -35 7 -25 3
-39 -20 -80 -16 -27 -33 -59 -38 -70 -5 -12 -13 -23 -18 -25 -4 -2 -17 -22
-28 -44 -11 -22 -24 -43 -30 -47 -5 -4 -10 -11 -10 -15 -1 -11 -36 -77 -45
-83 -3 -3 -16 -26 -29 -52 -12 -25 -29 -49 -37 -52 -23 -9 -557 -7 -569 2 -6
4 -22 31 -35 60 -14 28 -28 52 -32 52 -5 0 -8 7 -8 16 0 8 -7 22 -15 30 -8 9
-15 24 -15 35 0 10 -4 19 -8 19 -5 0 -19 25 -33 55 -13 30 -27 55 -31 55 -5 0
-8 11 -8 25 0 14 -4 25 -10 25 -14 0 -43 71 -41 100 2 14 7 29 12 34 5 6 9 18
9 28 0 10 4 18 9 18 5 0 14 14 20 30 5 17 14 30 19 30 5 0 15 18 22 40 7 22
19 45 27 51 7 6 13 20 13 30 0 11 4 19 9 19 5 0 13 10 17 23 3 12 19 41 35 65
16 24 29 49 29 57 0 7 5 15 11 17 18 6 530 0 563 -7z"/>
</g>
</svg>
