<?xml version="1.0" standalone="no"?>
<!DOCTYPE svg PUBLIC "-//W3C//DTD SVG 20010904//EN"
 "http://www.w3.org/TR/2001/REC-SVG-20010904/DTD/svg10.dtd">
<svg version="1.0" xmlns="http://www.w3.org/2000/svg"
 width="16.000000pt" height="16.000000pt" viewBox="0 0 16.000000 16.000000"
 preserveAspectRatio="xMidYMid meet">
<metadata>
Created by potrace 1.11, written by Peter Selinger 2001-2013
</metadata>
<g transform="translate(0.000000,16.000000) scale(0.010526,-0.010526)"
fill="#000000" stroke="none">
<path d="M863 1496 c-29 -25 -103 -97 -163 -160 l-34 -36 -1 -141 -1 -140
-332 -333 -332 -333 0 -110 c0 -118 2 -124 66 -188 51 -51 63 -55 178 -55
l109 0 333 332 333 333 133 1 c73 1 138 2 144 3 12 1 171 156 205 199 16 21
19 41 19 133 l0 108 -51 55 c-45 49 -56 56 -89 56 -33 0 -46 -9 -123 -87 l-86
-86 -60 -2 c-34 -1 -61 1 -62 4 -1 3 -2 31 -3 61 l-2 55 90 92 c112 114 114
129 31 211 l-53 52 -110 0 c-102 0 -113 -2 -139 -24z m233 -95 l24 -23 -61
-62 c-113 -113 -109 -104 -109 -219 0 -90 2 -103 22 -124 20 -21 30 -23 123
-23 117 0 114 -1 218 107 l61 63 25 -24 c20 -21 24 -35 26 -97 l2 -73 -81 -83
-81 -83 -145 0 -144 0 -336 -334 -335 -333 -71 1 c-66 2 -74 4 -105 34 -34 31
-35 34 -34 108 l1 75 329 329 330 330 3 147 4 147 81 81 82 81 73 0 c63 -1 77
-4 98 -25z"/>
</g>
</svg>
